HIERARCHY
ROOT Hips
{
 OFFSET 0.000000 0.000000 0.000000
 CHANNELS 6 Xposition Yposition Zposition Yrotation Xrotation Zrotation
 JOINT Chest
 {
  OFFSET 0.000000 9.585900 0.002600
  CHANNELS 3 Yrotation Xrotation Zrotation
  JOINT Chest2
  {
   OFFSET 0.000000 9.601200 -0.005300
   CHANNELS 3 Yrotation Xrotation Zrotation
   JOINT Chest3
   {
    OFFSET 0.000000 9.561800 0.000000
    CHANNELS 3 Yrotation Xrotation Zrotation
    JOINT Chest4
    {
     OFFSET 0.000000 9.552100 0.000000
     CHANNELS 3 Yrotation Xrotation Zrotation
     JOINT Neck
     {
      OFFSET 0.000000 14.453000 0.000000
      CHANNELS 3 Yrotation Xrotation Zrotation
      JOINT Head
      {
       OFFSET 0.000000 8.936500 -0.011300
       CHANNELS 3 Yrotation Xrotation Zrotation
       End Site
       {
        OFFSET 0.000000 17.073600 -0.006000
       }
      }
     }
     JOINT RightCollar
     {
      OFFSET -2.921100 9.558500 0.000000
      CHANNELS 3 Yrotation Xrotation Zrotation
      JOINT RightShoulder
      {
       OFFSET -13.519700 0.000000 0.000000
       CHANNELS 3 Yrotation Xrotation Zrotation
       JOINT RightElbow
       {
        OFFSET 0.000000 -29.696600 0.000000
        CHANNELS 3 Yrotation Xrotation Zrotation
        JOINT RightWrist
        {
         OFFSET 0.000000 -24.004700 0.000000
         CHANNELS 3 Yrotation Xrotation Zrotation
         End Site
         {
          OFFSET 0.000000 -17.728500 0.000000
         }
        }
       }
      }
     }
     JOINT LeftCollar
     {
      OFFSET 2.921100 9.558500 0.000000
      CHANNELS 3 Yrotation Xrotation Zrotation
      JOINT LeftShoulder
      {
       OFFSET 13.519700 0.000000 0.000000
       CHANNELS 3 Yrotation Xrotation Zrotation
       JOINT LeftElbow
       {
        OFFSET 0.000000 -29.696600 0.000000
        CHANNELS 3 Yrotation Xrotation Zrotation
        JOINT LeftWrist
        {
         OFFSET 0.000000 -24.004700 0.000000
         CHANNELS 3 Yrotation Xrotation Zrotation
         End Site
         {
          OFFSET 0.000000 -17.728500 0.000000
         }
        }
       }
      }
     }
    }
   }
  }
 }
 JOINT RightHip
 {
  OFFSET -7.771700 -0.012900 -0.001300
  CHANNELS 3 Yrotation Xrotation Zrotation
  JOINT RightKnee
  {
   OFFSET 0.000000 -40.869800 0.001200
   CHANNELS 3 Yrotation Xrotation Zrotation
   JOINT RightAnkle
   {
    OFFSET 0.000000 -39.717900 0.002100
    CHANNELS 3 Yrotation Xrotation Zrotation
    JOINT RightToe
    {
     OFFSET 0.000000 -4.965400 11.033500
     CHANNELS 3 Yrotation Xrotation Zrotation
     End Site
     {
      OFFSET 0.000000 -1.423100 5.872300
     }
    }
   }
  }
 }
 JOINT LeftHip
 {
  OFFSET 7.771700 -0.012900 -0.001300
  CHANNELS 3 Yrotation Xrotation Zrotation
  JOINT LeftKnee
  {
   OFFSET 0.000000 -40.869800 0.001200
   CHANNELS 3 Yrotation Xrotation Zrotation
   JOINT LeftAnkle
   {
    OFFSET 0.000000 -39.717900 0.002100
    CHANNELS 3 Yrotation Xrotation Zrotation
    JOINT LeftToe
    {
     OFFSET 0.000000 -4.965400 11.033500
     CHANNELS 3 Yrotation Xrotation Zrotation
     End Site
     {
      OFFSET 0.000000 -1.423100 5.872300
     }
    }
   }
  }
 }
}
MOTION
Frames: 14
Frame Time: 0.008333
0.000000 85.388000 0.000000 0.000000 -5.767877 0.000000 0.000000 11.653817 0.000000 0.000000 -5.885947 0.000000 0.000000 -0.000000 0.000000 0.000000 -0.000000 0.000000 0.000000 12.528835 0.000000 0.000000 0.711642 0.000000 0.000000 -0.000000 0.000000 0.000000 0.000000 -90.000000 0.000000 -2.309062 0.000000 0.000000 2.309062 0.000000 0.000000 -0.000000 0.000000 0.000000 -0.000000 90.000000 0.000000 -2.309062 0.000000 0.000000 2.309062 0.000000 0.000000 8.520406 0.000000 0.000000 1.905762 0.000000 -0.000000 -4.658285 0.000000 0.000000 -0.000000 0.000000 0.000000 8.520406 0.000000 0.000000 1.905762 0.000000 -0.000000 -4.658285 0.000000 0.000000 -0.000000 0.000000
-3.898895 52.223415 32.432704 169.926409 -37.342273 -1.619820 4.521769 24.371382 2.603349 0.599565 3.915258 0.463219 0.920464 6.056220 0.825590 3.597203 20.366728 3.081542 1.667936 15.003735 -0.390686 3.266351 -7.903609 -1.352223 -3.938218 1.218861 -2.146253 -4.139550 -2.747343 3.232631 176.244356 -75.129581 -162.705464 3.483394 -1.901669 -7.274872 -5.775356 1.845279 0.348304 6.051054 -9.638943 3.862565 -154.385275 -60.492110 156.631654 1.317581 -30.279152 3.910359 -3.477748 -44.197842 4.199832 -122.211946 85.248751 -117.757552 -0.104025 -9.876494 -2.846531 0.576760 -1.075115 0.247704 0.924702 -40.390176 5.988247 72.640945 83.884515 62.613334 -5.102560 -13.333963 9.894966 0.414186 1.357845 0.193263
-3.895773 52.221714 32.426665 169.886480 -37.367671 -1.600052 4.604914 24.514602 2.589458 0.583456 3.855093 0.484914 0.961511 6.190761 0.789620 3.611593 20.320423 3.077207 1.612667 14.935196 -0.381014 3.161000 -8.032606 -1.315496 -3.974407 1.233324 -2.140978 -4.100393 -2.793820 3.257789 175.968796 -75.087051 -162.463205 3.509220 -1.979260 -7.361921 -5.836903 1.882545 0.374583 6.074766 -9.832564 3.901572 -157.981598 -61.620560 159.358169 1.377422 -27.464697 2.392041 -3.468553 -44.178976 4.212251 -122.400801 85.250825 -117.953239 -0.097559 -9.873957 -2.851780 0.567953 -1.084611 0.245398 0.933398 -40.368342 5.986871 72.846846 83.883254 62.826440 -5.079360 -13.346583 9.871864 0.409404 1.352240 0.192347
-3.892793 52.217842 32.422108 169.864982 -37.376772 -1.592518 4.639128 24.552189 2.592487 0.605540 3.903398 0.471782 0.982803 6.247094 0.775078 3.634936 20.330023 3.059095 1.563068 14.871421 -0.366344 3.064266 -8.152705 -1.271412 -4.017632 1.244694 -2.129832 -4.058289 -2.831279 3.274005 175.696453 -75.041744 -162.227540 3.468789 -2.070089 -7.428088 -5.897664 1.919620 0.405697 6.083024 -10.023495 3.923205 -162.176811 -62.750441 162.628433 1.398558 -24.432263 1.043570 -3.462045 -44.174778 4.219382 -122.571178 85.254674 -118.117444 -0.100169 -9.878552 -2.863694 0.566615 -1.086166 0.247341 0.942073 -40.362008 5.990521 72.931055 83.892646 62.919069 -5.075379 -13.359376 9.859153 0.417437 1.360237 0.194167
-3.893777 52.213312 32.416734 169.833455 -37.382491 -1.556252 4.671543 24.587104 2.570914 0.638201 3.971136 0.453277 0.988152 6.255497 0.774646 3.664856 20.367352 3.035483 1.520272 14.811467 -0.347914 2.978621 -8.265667 -1.222617 -4.064808 1.250869 -2.115407 -4.017538 -2.860540 3.281206 175.451652 -74.994935 -162.018508 3.510356 -2.170556 -7.516132 -5.957850 1.951706 0.435668 6.046812 -10.200375 3.934451 -166.814394 -63.811139 166.356918 1.425764 -21.356632 -0.051016 -3.422859 -44.176846 4.192841 -122.778285 85.255340 -118.318672 -0.108122 -9.898224 -2.873757 0.575543 -1.076203 0.252247 0.972432 -40.360631 5.951439 73.070598 83.886369 63.069142 -5.057895 -13.358179 9.846591 0.411600 1.351884 0.188915
-3.894293 52.209372 32.410529 169.817243 -37.391736 -1.533848 4.720648 24.654979 2.557769 0.636910 3.990100 0.448296 1.000018 6.283819 0.768527 3.693021 20.405304 3.012604 1.488545 14.705098 -0.304660 2.906550 -8.329742 -1.193994 -4.109627 1.252041 -2.101723 -3.982482 -2.887751 3.280529 175.260884 -74.947956 -161.853732 3.549827 -2.290590 -7.593889 -6.013235 1.969888 0.458410 5.992650 -10.360931 3.931612 -171.640219 -64.736814 170.326799 1.516294 -18.519146 -0.840274 -3.399377 -44.171928 4.173385 -122.998979 85.261318 -118.531404 -0.127141 -9.918090 -2.886506 0.594554 -1.067063 0.259868 0.983406 -40.353753 5.913876 73.230429 83.867785 63.240349 -5.037391 -13.366301 9.836030 0.399243 1.350653 0.176845
-3.894764 52.204824 32.405678 169.791975 -37.389114 -1.511236 4.767454 24.709967 2.541715 0.637487 4.011459 0.448290 1.010631 6.312276 0.762506 3.716921 20.443689 2.989491 1.459414 14.667049 -0.298326 2.849386 -8.469046 -1.139857 -4.150001 1.248142 -2.094879 -3.953573 -2.916404 3.275079 175.117342 -74.903328 -161.724054 3.560631 -2.426729 -7.656617 -6.061299 1.966522 0.470381 5.959644 -10.505015 3.899088 -176.183714 -65.485405 174.121712 1.666324 -16.303878 -1.287055 -3.379149 -44.181229 4.166115 -123.208841 85.270677 -118.741316 -0.137648 -9.926259 -2.891501 0.596595 -1.062799 0.261180 1.002393 -40.360958 5.879464 73.408224 83.847365 63.434030 -5.019798 -13.371330 9.824644 0.387973 1.346684 0.165638
-3.897423 52.201147 32.400299 169.759698 -37.385817 -1.475096 4.810382 24.768375 2.517659 0.633574 4.028788 0.446288 1.019691 6.339996 0.757207 3.736105 20.481229 2.968522 1.434577 14.628051 -0.294688 2.802026 -8.609758 -1.095505 -4.185001 1.239985 -2.097583 -3.930058 -2.942611 3.265754 174.993874 -74.862423 -161.603772 3.565142 -2.579927 -7.718015 -6.103228 1.944669 0.474915 5.958934 -10.624806 3.829277 -179.702122 -66.014478 177.099535 1.820324 -15.057343 -1.369637 -3.348217 -44.194759 4.143505 -123.488698 85.283419 -119.020857 -0.149436 -9.927902 -2.899526 0.598153 -1.065758 0.262395 1.039515 -40.366903 5.815218 73.598588 83.811352 63.649917 -4.986289 -13.380044 9.811134 0.359219 1.350635 0.149949
-3.897582 52.198880 32.395228 169.736529 -37.382582 -1.463899 4.842301 24.826092 2.511712 0.633666 4.041825 0.444696 1.026975 6.366276 0.753037 3.750448 20.516858 2.951189 1.423423 14.529535 -0.273531 2.779676 -8.667831 -1.080436 -4.214843 1.229871 -2.105777 -3.908508 -2.963029 3.249319 174.857368 -74.824421 -161.463752 3.559594 -2.752413 -7.779644 -6.140378 1.913750 0.479601 5.962098 -10.705908 3.727425 178.706682 -66.297005 178.495966 1.936653 -14.969085 -1.091730 -3.341349 -44.206573 4.152526 -123.690732 85.286859 -119.225463 -0.154297 -9.915371 -2.900235 0.592820 -1.081866 0.259325 1.055153 -40.371581 5.806735 73.701770 83.806276 63.772756 -5.015074 -13.383971 9.792342 0.395468 1.351238 0.158203
-3.899446 52.197464 32.390638 169.719789 -37.372393 -1.451427 4.860777 24.872599 2.496449 0.632820 4.054453 0.447201 1.032547 6.389981 0.749842 3.760198 20.549071 2.937083 1.415633 14.442188 -0.262855 2.758238 -8.724618 -1.067608 -4.242699 1.219838 -2.116036 -3.886452 -2.976307 3.225254 174.678247 -74.786011 -161.279110 3.542001 -2.940222 -7.836451 -6.175308 1.878956 0.486696 5.924924 -10.731816 3.616207 179.678004 -66.301916 177.777534 2.007909 -16.007917 -0.454181 -3.334984 -44.221413 4.152820 -123.844962 85.293851 -119.379796 -0.164662 -9.910349 -2.905409 0.598255 -1.089560 0.260609 1.060199 -40.382908 5.777125 73.834907 83.780794 63.927933 -5.015594 -13.388534 9.766928 0.391995 1.355696 0.159032
-3.903690 52.196111 32.387696 169.680717 -37.346481 -1.417318 4.886831 24.901049 2.474870 0.628580 4.064857 0.444338 1.036660 6.410663 0.747347 3.766038 20.577323 2.925576 1.404867 14.400449 -0.265185 2.720969 -8.828345 -1.052303 -4.249836 1.161709 -2.110873 -3.877041 -2.932963 3.178445 174.446386 -74.744094 -161.042188 3.515722 -3.138652 -7.887356 -6.209153 1.842377 0.492008 5.824737 -10.693073 3.527722 -176.815249 -65.926226 174.977748 2.034154 -17.953620 0.535790 -3.323080 -44.254281 4.155776 -123.939200 85.298090 -119.490006 -0.170607 -9.904978 -2.908729 0.600525 -1.092869 0.262372 1.072456 -40.404799 5.735104 73.957811 83.738760 64.064941 -5.002238 -13.397550 9.734632 0.376096 1.364618 0.157478
-3.903089 52.196210 32.386200 169.657616 -37.316388 -1.426916 4.909911 24.919229 2.486827 0.619987 4.074593 0.440597 1.039010 6.428514 0.745298 3.767352 20.601997 2.915599 1.376762 14.399820 -0.277142 2.668578 -8.996597 -1.046755 -4.245130 1.111517 -2.111419 -3.870362 -2.889221 3.138408 174.163058 -74.698861 -160.751875 3.487430 -3.346297 -7.937694 -6.243165 1.809390 0.489938 5.685371 -10.589447 3.478593 -171.514675 -65.033900 170.733541 1.964129 -20.552579 1.859715 -3.339430 -44.281575 4.194372 -123.992217 85.320605 -119.537876 -0.193757 -9.894431 -2.922843 0.607613 -1.097262 0.266851 1.059709 -40.433175 5.753282 74.019383 83.722797 64.141055 -5.013445 -13.406466 9.708689 0.394472 1.375645 0.166943
-3.906592 52.198342 32.383222 169.645866 -37.290880 -1.421412 4.900840 24.942380 2.467305 0.615136 4.081059 0.434845 1.039525 6.442574 0.743240 3.763986 20.621978 2.905674 1.363046 14.366125 -0.286864 2.670389 -9.097954 -1.060149 -4.248733 1.117619 -2.117024 -3.847888 -2.893878 3.110093 173.836768 -74.652240 -160.414995 3.459450 -3.560776 -7.992832 -6.282343 1.787642 0.476373 5.550617 -10.422873 3.464523 -165.479975 -63.568203 165.956984 1.716482 -23.572240 3.469012 -3.344054 -44.306488 4.204745 -124.033784 85.332737 -119.584692 -0.209063 -9.881033 -2.924808 0.616160 -1.103307 0.270096 1.040953 -40.452208 5.742937 74.082651 83.694900 64.196494 -4.988594 -13.409819 9.699267 0.370754 1.376519 0.160473
-3.912537 52.202688 32.378527 169.616586 -37.274570 -1.392630 4.895786 24.973619 2.429530 0.624561 4.060336 0.439242 1.019534 6.472174 0.729372 3.772254 20.624003 2.902754 1.346206 14.335387 -0.300803 2.675002 -9.176972 -1.081672 -4.267865 1.145361 -2.111633 -3.817436 -2.900500 3.072458 173.472621 -74.607936 -160.038236 3.432261 -3.776946 -8.056046 -6.346944 1.789348 0.439784 5.447359 -10.198537 3.484224 -159.612386 -61.626102 161.427863 1.297688 -26.794389 5.229561 -3.328387 -44.323972 4.204147 -124.056788 85.340712 -119.620775 -0.233806 -9.868703 -2.926811 0.634050 -1.109687 0.277245 1.020813 -40.456069 5.690722 74.213385 83.629262 64.330701 -4.928406 -13.428232 9.663897 0.332294 1.385629 0.142995
